<svg xmlns="http://www.w3.org/2000/svg" xmlns:xlink="http://www.w3.org/1999/xlink" viewBox="0 0 498.38 173.62"><defs><style>.cls-1,.cls-2,.cls-3{fill:none;}.cls-2,.cls-3{clip-rule:evenodd;}.cls-3{clip-path:url(#clip-path);}.cls-4{font-size:12px;}.cls-26,.cls-4{fill:#4c4c4d;}.cls-26,.cls-29,.cls-4,.cls-5{font-family:Jost-Bold, Jost Bold;font-weight:700;}.cls-26,.cls-29,.cls-5{font-size:10px;}.cls-12,.cls-5{fill:#10263c;}.cls-6{letter-spacing:0em;}.cls-7{letter-spacing:0em;}.cls-8{letter-spacing:-0.01em;}.cls-9{letter-spacing:0em;}.cls-10{letter-spacing:0em;}.cls-11{letter-spacing:-0.01em;}.cls-13{fill:#fff;}.cls-14{isolation:isolate;}.cls-15{clip-path:url(#clip-path-2);}.cls-16{fill:#ebebeb;}.cls-17{fill:#ededed;}.cls-18{fill:#e8e8e8;}.cls-19{fill:#e6e6e6;}.cls-20{fill:#e3e3e3;}.cls-21{fill:#e0e0e0;}.cls-22{fill:#dedede;}.cls-23{fill:#e5e5e5;}.cls-24{clip-path:url(#clip-path-3);}.cls-25{clip-path:url(#clip-path-4);}.cls-27{fill:#939598;}.cls-28{clip-path:url(#clip-path-5);}.cls-29,.cls-30{fill:#1c3f6b;}.cls-31{clip-path:url(#clip-path-6);}.cls-32{letter-spacing:-0.03em;}.cls-33{letter-spacing:0.02em;}.cls-34{letter-spacing:0em;}.cls-35{clip-path:url(#clip-path-7);}.cls-36{clip-path:url(#clip-path-8);}.cls-37{letter-spacing:-0.04em;}.cls-38{letter-spacing:-0.03em;}.cls-39{letter-spacing:-0.01em;}.cls-40{letter-spacing:0.01em;}.cls-41{letter-spacing:0em;}.cls-42{clip-path:url(#clip-path-9);}</style><clipPath id="clip-path"><polygon class="cls-2" points="422.56 103.8 463.15 103.8 463.15 63.21 422.56 63.21 422.56 103.8 422.56 103.8"/></clipPath><clipPath id="clip-path-2"><path class="cls-1" d="M76.61,58V55A28.54,28.54,0,1,1,48.07,83.5,28.54,28.54,0,0,1,76.61,55v3A25.54,25.54,0,1,0,102.15,83.5,25.55,25.55,0,0,0,76.61,58Z"/></clipPath><clipPath id="clip-path-3"><polygon class="cls-2" points="54.5 105.59 98.72 105.59 98.72 61.42 54.5 61.42 54.5 105.59 54.5 105.59"/></clipPath><clipPath id="clip-path-4"><polygon class="cls-1" points="54.5 105.59 98.72 105.59 98.72 61.42 54.5 61.42 54.5 105.59 54.5 105.59"/></clipPath><clipPath id="clip-path-5"><path class="cls-1" d="M350.31,58V55A28.54,28.54,0,1,1,321.77,83.5,28.54,28.54,0,0,1,350.31,55v3A25.54,25.54,0,1,0,375.85,83.5,25.55,25.55,0,0,0,350.31,58Z"/></clipPath><clipPath id="clip-path-6"><path class="cls-1" d="M167.94,58V55A28.54,28.54,0,1,1,139.4,83.5,28.54,28.54,0,0,1,167.94,55v3A25.54,25.54,0,1,0,193.48,83.5,25.54,25.54,0,0,0,167.94,58Z"/></clipPath><clipPath id="clip-path-7"><path class="cls-1" d="M442.86,58V55A28.54,28.54,0,1,1,414.32,83.5,28.54,28.54,0,0,1,442.86,55v3A25.54,25.54,0,1,0,468.39,83.5,25.54,25.54,0,0,0,442.86,58Z"/></clipPath><clipPath id="clip-path-8"><polygon class="cls-3" points="422.56 63.21 463.15 63.21 463.15 103.8 422.56 103.8 422.56 63.21 422.56 63.21"/></clipPath><clipPath id="clip-path-9"><path class="cls-1" d="M260,58V55A28.54,28.54,0,1,1,231.44,83.5,28.54,28.54,0,0,1,260,55v3A25.54,25.54,0,1,0,285.51,83.5,25.54,25.54,0,0,0,260,58Z"/></clipPath></defs><g id="Layer_2" data-name="Layer 2"><text class="cls-4" transform="translate(61.33 125.9)">2019</text><text class="cls-5" transform="translate(86.55 20.46)"><tspan class="cls-6">A</tspan><tspan class="cls-7" x="6.09" y="0">l</tspan><tspan class="cls-8" x="8.45" y="0">t</tspan><tspan x="11.7" y="0">e</tspan><tspan class="cls-9" x="16.71" y="0">r</tspan><tspan x="20.02" y="0">n</tspan><tspan class="cls-10" x="25.57" y="0">a</tspan><tspan x="30.35" y="0">ti</tspan><tspan class="cls-11" x="36" y="0">v</tspan><tspan x="40.71" y="0">es</tspan><tspan class="cls-6" x="0" y="11">A</tspan><tspan class="cls-7" x="6.09" y="11">nal</tspan><tspan class="cls-8" x="18.82" y="11">y</tspan><tspan x="23.47" y="11">sis</tspan></text><path class="cls-12" d="M43.26,84.51H12.62v-2H41.27A35.4,35.4,0,0,1,75.61,48.17V19.47h2V50.16h-1A33.39,33.39,0,0,0,43.26,83.51Z"/><circle class="cls-13" cx="76.61" cy="17" r="3.47"/><path class="cls-12" d="M76.61,21.47A4.47,4.47,0,1,1,81.07,17,4.47,4.47,0,0,1,76.61,21.47Zm0-6.94A2.47,2.47,0,1,0,79.07,17,2.48,2.48,0,0,0,76.61,14.53Z"/><g class="cls-14"><g class="cls-14"><g class="cls-15"><g class="cls-14"><path class="cls-16" d="M76.61,58V55a28.39,28.39,0,0,1,14.27,3.82l-1.5,2.6A25.47,25.47,0,0,0,76.61,58"/><path class="cls-17" d="M89.38,61.38l1.5-2.6A28.67,28.67,0,0,1,103.35,73.5l-2.81,1A25.69,25.69,0,0,0,89.38,61.38"/><path class="cls-16" d="M100.54,74.55l2.81-1A28.66,28.66,0,0,1,104.4,90l-2.92-.68a25.69,25.69,0,0,0-.94-14.78"/><path class="cls-18" d="M101.48,89.33l2.92.68a28.31,28.31,0,0,1-4.62,10.16l-2.44-1.75a25.25,25.25,0,0,0,4.14-9.09"/><path class="cls-19" d="M97.34,98.42l2.44,1.75a28.47,28.47,0,0,1-7.64,7.28l-1.63-2.52a25.65,25.65,0,0,0,6.83-6.51"/><path class="cls-20" d="M90.51,104.93l1.63,2.52a28.29,28.29,0,0,1-10.62,4.17l-.52-3a25.4,25.4,0,0,0,9.51-3.74"/><path class="cls-21" d="M81,108.67l.52,3a28.72,28.72,0,0,1-16.59-2.07l1.23-2.74A25.34,25.34,0,0,0,76.61,109a26.36,26.36,0,0,0,4.39-.37"/><path class="cls-22" d="M66.16,106.81l-1.23,2.74A28.6,28.6,0,0,1,49,90.73L51.9,90a25.57,25.57,0,0,0,14.26,16.84"/><path class="cls-21" d="M51.9,90,49,90.73a28.68,28.68,0,0,1,.69-16.68l2.83,1A25.6,25.6,0,0,0,51.9,90"/><path class="cls-20" d="M52.51,75l-2.83-1a28.47,28.47,0,0,1,5.9-9.84l2.21,2A25.5,25.5,0,0,0,52.51,75"/><path class="cls-19" d="M57.79,66.24l-2.21-2A28.79,28.79,0,0,1,64,57.89l1.33,2.7a25.55,25.55,0,0,0-7.54,5.65"/><path class="cls-18" d="M65.33,60.59,64,57.89A28.4,28.4,0,0,1,74.79,55L75,58a25.12,25.12,0,0,0-9.65,2.57"/><path class="cls-16" d="M75,58l-.19-3c.6,0,1.21-.06,1.82-.06v3c-.55,0-1.09,0-1.63.06"/></g></g></g><path class="cls-23" d="M76.61,58A25.54,25.54,0,1,1,51.07,83.5,25.55,25.55,0,0,1,76.61,58Z"/></g><g class="cls-24"><g class="cls-25"><path class="cls-12" d="M88,90.6a3.1,3.1,0,0,0-2.82-.87l-2.05-2a13.73,13.73,0,1,0-10.93,5.32,14,14,0,0,0,8.38-2.82l2,2a3.32,3.32,0,0,0,.87,2.86l5.69,5.69a3.19,3.19,0,1,0,4.51-4.5L88,90.6Zm-15.71-.28A10.92,10.92,0,1,1,83.19,79.4,10.9,10.9,0,0,1,72.26,90.32Z"/><path class="cls-12" d="M82.05,78.72h-2.6a1,1,0,0,0-.59.36L77.13,81l-1.46-5a.82.82,0,0,0-1-.55.86.86,0,0,0-.54.5l-2.74,7.24-1.86-10a.77.77,0,0,0-.91-.64A.93.93,0,0,0,68,73l-2,5.74H62.47v1.82h4.14a.93.93,0,0,0,.78-.68l1.14-3.46,1.82,9.78a.73.73,0,0,0,.73.64h.09a.84.84,0,0,0,.77-.5l2.91-7.65L76,82.77a.81.81,0,0,0,1,.55,1,1,0,0,0,.36-.23l2.46-2.55H82.1V78.72Z"/></g></g><text class="cls-4" transform="translate(338 49.99)">2021</text><text class="cls-26" transform="translate(361.5 151.13)">Open<tspan x="0" y="11">House #2</tspan></text><path class="cls-27" d="M352.56,147.5h-2V118.84a35.39,35.39,0,0,1-34.34-34.33H287.51v-2h30.7v1a33.39,33.39,0,0,0,33.35,33.35h1Z"/><circle class="cls-13" cx="351.56" cy="147.67" r="3.47"/><path class="cls-27" d="M351.56,152.13a4.47,4.47,0,1,1,4.46-4.46A4.47,4.47,0,0,1,351.56,152.13Zm0-6.93a2.47,2.47,0,1,0,2.46,2.47A2.48,2.48,0,0,0,351.56,145.2Z"/><g class="cls-14"><g class="cls-14"><g class="cls-28"><g class="cls-14"><path class="cls-16" d="M350.31,58V55a28.39,28.39,0,0,1,14.27,3.82l-1.5,2.6A25.47,25.47,0,0,0,350.31,58"/><path class="cls-17" d="M363.08,61.38l1.5-2.6A28.66,28.66,0,0,1,377,73.5l-2.81,1a25.62,25.62,0,0,0-11.15-13.17"/><path class="cls-16" d="M374.23,74.55l2.81-1A28.57,28.57,0,0,1,378.1,90l-2.92-.68a25.6,25.6,0,0,0-.95-14.78"/><path class="cls-18" d="M375.18,89.33l2.92.68a28.31,28.31,0,0,1-4.62,10.16L371,98.42a25.25,25.25,0,0,0,4.14-9.09"/><path class="cls-19" d="M371,98.42l2.44,1.75a28.61,28.61,0,0,1-7.64,7.28l-1.63-2.52A25.65,25.65,0,0,0,371,98.42"/><path class="cls-20" d="M364.21,104.93l1.63,2.52a28.29,28.29,0,0,1-10.62,4.17l-.52-3a25.4,25.4,0,0,0,9.51-3.74"/><path class="cls-21" d="M354.7,108.67l.52,3a28.72,28.72,0,0,1-16.59-2.07l1.23-2.74A25.3,25.3,0,0,0,350.31,109a26.36,26.36,0,0,0,4.39-.37"/><path class="cls-22" d="M339.86,106.81l-1.23,2.74a28.6,28.6,0,0,1-15.94-18.82L325.6,90a25.57,25.57,0,0,0,14.26,16.84"/><path class="cls-21" d="M325.6,90l-2.91.76a28.78,28.78,0,0,1,.68-16.68l2.84,1A25.6,25.6,0,0,0,325.6,90"/><path class="cls-20" d="M326.21,75l-2.84-1a28.65,28.65,0,0,1,5.91-9.84l2.21,2a25.5,25.5,0,0,0-5.28,8.8"/><path class="cls-19" d="M331.49,66.24l-2.21-2a28.79,28.79,0,0,1,8.42-6.32l1.33,2.7a25.43,25.43,0,0,0-7.54,5.65"/><path class="cls-18" d="M339,60.59l-1.33-2.7A28.4,28.4,0,0,1,348.49,55l.19,3A25.07,25.07,0,0,0,339,60.59"/><path class="cls-16" d="M348.68,58l-.19-3c.6,0,1.21-.06,1.82-.06v3c-.55,0-1.09,0-1.63.06"/></g></g></g><path class="cls-23" d="M350.31,58A25.54,25.54,0,1,1,324.77,83.5,25.55,25.55,0,0,1,350.31,58Z"/></g><path class="cls-27" d="M364.67,89.89l-3.27,4.69-2.3-1.89a.58.58,0,1,0-.74.9l2.79,2.29a.59.59,0,0,0,.37.14h.08a.58.58,0,0,0,.4-.24l3.63-5.22a.58.58,0,0,0-1-.66Z"/><path class="cls-27" d="M361.52,96.39a.89.89,0,0,1-.6-.22l-2.8-2.29a.95.95,0,0,1-.13-1.35.91.91,0,0,1,.65-.34.94.94,0,0,1,.7.21l2,1.63,3-4.36a.94.94,0,0,1,.62-.39,1,1,0,0,1,.72.15.94.94,0,0,1,.39.62,1,1,0,0,1-.15.72L362.31,96a.93.93,0,0,1-.66.4Zm-2.79-3.46h0a.18.18,0,0,0-.14.08.17.17,0,0,0-.05.15.18.18,0,0,0,.08.14l2.79,2.29a.18.18,0,0,0,.13,0,.24.24,0,0,0,.18-.09l3.62-5.21a.23.23,0,0,0,0-.16.2.2,0,0,0-.09-.13.23.23,0,0,0-.16,0,.2.2,0,0,0-.13.09l-3.5,5L358.86,93A.21.21,0,0,0,358.73,92.93Z"/><path class="cls-27" d="M365.15,86.41V69.2a.58.58,0,0,0-.58-.58h-2.92V66.87a.58.58,0,0,0-.59-.58H357a.59.59,0,0,0-.59.58v1.75H343.55V66.87a.58.58,0,0,0-.58-.58h-4.09a.58.58,0,0,0-.58.58v1.75h-2.92a.58.58,0,0,0-.59.58V99a.58.58,0,0,0,.59.58h22.24a7.51,7.51,0,0,0,4,1.17,7.59,7.59,0,0,0,3.5-14.32Zm-7.59-19h2.92V71h-2.92V67.45Zm-18.1,0h2.92V71h-2.92V67.45ZM336,69.79h2.34v1.75a.58.58,0,0,0,.58.58H343a.58.58,0,0,0,.58-.58V69.79h12.84v1.75a.59.59,0,0,0,.59.58h4.08a.58.58,0,0,0,.59-.58V69.79H364v4.67H336Zm0,28.6V75.63h28V85.92l-.35-.1-.32-.08-.3-.06-.43-.07-.24,0q-.34,0-.69,0a5.83,5.83,0,0,0-.59,0v-7H338.88V95.47h15.55l.06.16a3.52,3.52,0,0,0,.15.42,2.4,2.4,0,0,0,.11.23,4.39,4.39,0,0,0,.21.44l.1.18c.09.15.18.3.28.45l.11.15c.1.15.21.29.32.43l.13.15.27.31Zm22.37-12.06a1.11,1.11,0,0,0-.19.09,3.3,3.3,0,0,0-.32.18,2.61,2.61,0,0,0-.28.17l-.27.18-.3.22-.23.19-.3.27-.2.19-.3.33-.13.15V85h4.09v.79h0A7.25,7.25,0,0,0,358.33,86.33Zm-3.94,4.59c0,.07,0,.14-.05.2a4.39,4.39,0,0,0-.13.52c0,.13,0,.27-.06.41s0,.22,0,.33a6.34,6.34,0,0,0,0,.76c0,.21,0,.42,0,.64a.37.37,0,0,0,0,.11,2.36,2.36,0,0,0,0,.28h0s0,.08,0,.13h-3.59V90.22h4.08s0,0,0,0C354.54,90.48,354.46,90.7,354.39,90.92Zm-14.34-.7h4.08v4.09h-4.08Zm0-5.25h4.08v4.08h-4.08ZM359.9,83.8h-4.09V79.71h4.09Zm-5.26,0h-4.08V79.71h4.08Zm0,5.25h-4.08V85h4.08ZM345.3,85h4.09v4.08H345.3Zm4.09-1.17H345.3V79.71h4.09Zm-5.26,0h-4.08V79.71h4.08Zm1.17,6.42h4.09v4.09H345.3Zm16.35,9.34a6.42,6.42,0,0,1-3.57-1.08c-.2-.14-.38-.28-.56-.43l-.19-.17-.33-.32-.2-.22a4,4,0,0,1-.27-.34c-.06-.08-.12-.15-.17-.23s-.25-.38-.36-.57a1,1,0,0,0-.07-.15c-.08-.16-.16-.33-.23-.51l-.09-.23-.15-.46,0-.11a6.92,6.92,0,0,1-.14-.77.09.09,0,0,1,0,0,5.27,5.27,0,0,1,0-.78q0-.33,0-.66s0,0,0,0q0-.3.09-.6a.43.43,0,0,0,0,0c.05-.2.1-.39.16-.58a.14.14,0,0,1,0-.06c.06-.19.13-.37.2-.54s.15-.34.24-.5l.06-.09c0-.05.05-.09.07-.13s.21-.33.33-.49l.09-.12a3.19,3.19,0,0,1,.33-.4l.12-.14.36-.35.13-.12a5.37,5.37,0,0,1,.45-.35l.07,0a6.38,6.38,0,0,1,2.58-1h0a7.33,7.33,0,0,1,1.06-.09c.22,0,.45,0,.67,0l.11,0a5.62,5.62,0,0,1,.57.09l.07,0a5.72,5.72,0,0,1,.59.17h0a6.25,6.25,0,0,1,.6.24,6.42,6.42,0,0,1-2.65,12.26Z"/><path class="cls-27" d="M361.65,101.1a7.93,7.93,0,0,1-4.13-1.16H335.38a1,1,0,0,1-1-1V69.2a1,1,0,0,1,1-1h2.54V66.87a1,1,0,0,1,1-1H343a1,1,0,0,1,.95,1v1.38H356V66.87a1,1,0,0,1,1-1h4.08a1,1,0,0,1,1,1v1.38h2.55a1,1,0,0,1,1,1v17a8,8,0,0,1-3.88,14.91ZM335.38,69a.2.2,0,0,0-.21.2V99a.21.21,0,0,0,.21.21h22.35l.09,0A7.2,7.2,0,1,0,365,86.75l-.2-.11V69.2a.21.21,0,0,0-.21-.2h-3.3V66.87a.21.21,0,0,0-.21-.21H357a.21.21,0,0,0-.21.21V69h-13.6V66.87a.2.2,0,0,0-.2-.21h-4.09a.21.21,0,0,0-.21.21V69Zm26.27,30.94a6.65,6.65,0,0,1-4.38-1.61l-.14-.13c-.17-.15-.29-.27-.4-.38s-.15-.16-.21-.24a3.51,3.51,0,0,1-.29-.36l-.18-.23a6.41,6.41,0,0,1-.38-.62l-.05-.1a5.86,5.86,0,0,1-.27-.59l-.08-.2c-.07-.2-.12-.37-.17-.53l0-.12a7.73,7.73,0,0,1-.16-.81,7.22,7.22,0,0,1-.06-.88,5.48,5.48,0,0,1,0-.7c0-.27.06-.48.1-.68s.12-.47.18-.67.16-.46.24-.64.16-.36.25-.52l.11-.19c.14-.23.25-.4.37-.57l.07-.09c.14-.19.26-.33.38-.47l.13-.14c.12-.12.25-.25.38-.36l.14-.13a5.45,5.45,0,0,1,.47-.37l.08-.06a6.76,6.76,0,0,1,2.72-1.11,7,7,0,0,1,1.86-.06l.11,0a4.17,4.17,0,0,1,.6.1,5.7,5.7,0,0,1,.7.19,6.42,6.42,0,0,1,.68.27,6.8,6.8,0,0,1-2.81,13ZM356.33,96a6.1,6.1,0,0,0,.34.54l.16.21a3.92,3.92,0,0,0,.25.32l.19.21.31.3.18.16c.17.14.34.28.53.41a6,6,0,1,0,5.86-10.53c-.19-.08-.38-.16-.57-.22a4.27,4.27,0,0,0-.6-.17,4.32,4.32,0,0,0-.6-.11l-.05-.39,0,.38a5.73,5.73,0,0,0-1.64.05,6,6,0,0,0-2.44,1c-.21.15-.35.26-.49.38l-.08.08a4.58,4.58,0,0,0-.38.36l-.1.11-.32.39-.09.11c-.11.16-.21.31-.3.47l-.4-.06.32.18-.05.1a4.91,4.91,0,0,0-.22.46,4.29,4.29,0,0,0-.19.5,5.3,5.3,0,0,0-.17.61,5.9,5.9,0,0,0-.1.61,5.44,5.44,0,0,0,0,.67,6.11,6.11,0,0,0,0,.73,7,7,0,0,0,.15.77l-.34.21.36-.11c.05.15.09.3.14.44l.08.22c.07.16.15.32.23.48l-.27.31Zm.72,2.75H335.59V75.25h28.77V86.44l-.49-.16-.25-.07-.39-.11-.29,0a2.76,2.76,0,0,0-.4-.06l-.23,0a7.1,7.1,0,0,0-1.22,0l-.4,0V78.92H339.25V95.1H354.7l.09.26-.3.27.35-.13a3.06,3.06,0,0,0,.15.4l.1.22c.06.14.13.28.2.42l.1.18c.08.14.17.28.26.42l.06.08c.14.2.24.34.35.47l.21.24a1.63,1.63,0,0,0,.17.2ZM336.34,98h19l-.22-.3-.12-.17c-.1-.15-.19-.3-.28-.46l-.11-.19c-.08-.16-.16-.31-.23-.47l-.11-.24-.12-.34H338.5V78.17h22.94v7a7.44,7.44,0,0,1,.94,0l.21,0,.49.07.31.06.22.06V76H336.34Zm17.81-3.34h-4V89.85H355l0,.52c-.1.24-.17.45-.24.66l-.05.19c-.05.19-.09.34-.12.49a2.74,2.74,0,0,0-.05.28l0,.25,0,.18c0,.23,0,.48,0,.72s0,.4,0,.6l-.36.15.37,0,.1.69Zm-3.22-.75h2.79v-.12c0-.23,0-.45,0-.67s0-.54,0-.8a1.85,1.85,0,0,1,0-.23l0-.22c0-.11,0-.22,0-.33s.08-.34.13-.5l.39,0L354,91l0-.14a1.72,1.72,0,0,0,.07-.21h-3.17Zm-1.17.75h-4.83V89.85h4.83Zm-4.08-.75H349V90.6h-3.33Zm-1.17.75h-4.84V89.85h4.84Zm-4.09-.75h3.34V90.6h-3.34Zm14.6-4.5h-4.84V84.59H355Zm-4.09-.75h3.34V85.34h-3.34Zm-1.17.75h-4.83V84.59h4.83Zm-4.08-.75H349V85.34h-3.33Zm-1.17.75h-4.84V84.59h4.84Zm-4.09-.75h3.34V85.34h-3.34Zm15.07.6-.06-1V84.59h4.84v1.46l-.28.08a7.19,7.19,0,0,0-1.5.53l-.18.09-.27.15-.3.18-.25.18c-.1.06-.19.14-.29.21l-.21.17-.29.26-.19.18c-.1.1-.19.21-.29.32Zm.69-3.94v2l.32-.29.24-.19.31-.24.29-.19.29-.17.34-.2.14-.07.22.32-.17-.34a8.29,8.29,0,0,1,1.36-.52v-.13Zm4.09-1.17h-4.84V79.34h4.84Zm-4.09-.75h3.34V80.09h-3.34Zm-1.16.75h-4.84V79.34H355Zm-4.09-.75h3.34V80.09h-3.34Zm-1.17.75h-4.83V79.34h4.83Zm-4.08-.75H349V80.09h-3.33Zm-1.17.75h-4.84V79.34h4.84Zm-4.09-.75h3.34V80.09h-3.34Zm23.94-8.59H335.59V69.41h3.08v2.13a.21.21,0,0,0,.21.21H343a.21.21,0,0,0,.2-.21V69.41h13.6v2.13a.21.21,0,0,0,.21.21h4.08a.21.21,0,0,0,.21-.21V69.41h3.09Zm-28-.75h27.27V70.16H362v1.38a1,1,0,0,1-1,1H357a1,1,0,0,1-1-1V70.16h-12.1v1.38a1,1,0,0,1-.95,1h-4.09a1,1,0,0,1-1-1V70.16h-1.58Zm24.52-2.75h-3.67V67.08h3.67Zm-2.92-.75h2.17V67.83h-2.17Zm-15.18.75h-3.67V67.08h3.67Zm-2.92-.75H342V67.83h-2.17Z"/><text class="cls-4" transform="translate(155.63 49.99)">2020</text><text class="cls-29" transform="translate(177.83 151.13)">Open<tspan x="0" y="11">House #1</tspan></text><path class="cls-30" d="M169.19,147.5h-2V118.84a35.39,35.39,0,0,1-34.34-34.33h-28.7v-2h30.69v1a33.39,33.39,0,0,0,33.35,33.35h1Z"/><circle class="cls-13" cx="168.19" cy="147.67" r="3.47"/><path class="cls-30" d="M168.19,152.13a4.47,4.47,0,1,1,4.46-4.46A4.47,4.47,0,0,1,168.19,152.13Zm0-6.93a2.47,2.47,0,1,0,2.46,2.47A2.48,2.48,0,0,0,168.19,145.2Z"/><g class="cls-14"><g class="cls-14"><g class="cls-31"><g class="cls-14"><path class="cls-16" d="M167.94,58V55a28.39,28.39,0,0,1,14.27,3.82l-1.5,2.6A25.47,25.47,0,0,0,167.94,58"/><path class="cls-17" d="M180.71,61.38l1.5-2.6A28.67,28.67,0,0,1,194.68,73.5l-2.81,1a25.69,25.69,0,0,0-11.16-13.17"/><path class="cls-16" d="M191.87,74.55l2.81-1a28.56,28.56,0,0,1,1.8,10,29.06,29.06,0,0,1-.74,6.51l-2.93-.68a25.69,25.69,0,0,0-.94-14.78"/><path class="cls-18" d="M192.81,89.33l2.93.68a28.5,28.5,0,0,1-4.63,10.16l-2.44-1.75a25.25,25.25,0,0,0,4.14-9.09"/><path class="cls-19" d="M188.67,98.42l2.44,1.75a28.47,28.47,0,0,1-7.64,7.28l-1.63-2.52a25.65,25.65,0,0,0,6.83-6.51"/><path class="cls-20" d="M181.84,104.93l1.63,2.52a28.29,28.29,0,0,1-10.62,4.17l-.51-3a25.42,25.42,0,0,0,9.5-3.74"/><path class="cls-21" d="M172.34,108.67l.51,3a28.75,28.75,0,0,1-16.6-2.07l1.23-2.74A25.35,25.35,0,0,0,167.94,109a26.57,26.57,0,0,0,4.4-.37"/><path class="cls-22" d="M157.48,106.81l-1.23,2.74a28.58,28.58,0,0,1-15.92-18.81l2.9-.76a25.59,25.59,0,0,0,14.25,16.83"/><path class="cls-21" d="M143.23,90l-2.9.76A28.62,28.62,0,0,1,141,74l2.83,1A25.63,25.63,0,0,0,143.23,90"/><path class="cls-20" d="M143.84,75,141,74a28.58,28.58,0,0,1,5.9-9.83l2.21,2a25.56,25.56,0,0,0-5.28,8.8"/><path class="cls-19" d="M149.12,66.24l-2.21-2a28.79,28.79,0,0,1,8.42-6.32l1.33,2.7a25.43,25.43,0,0,0-7.54,5.65"/><path class="cls-18" d="M156.66,60.59l-1.33-2.7A28.4,28.4,0,0,1,166.12,55l.19,3a25.07,25.07,0,0,0-9.65,2.57"/><path class="cls-16" d="M166.31,58l-.19-3c.6,0,1.21-.06,1.82-.06v3c-.55,0-1.09,0-1.63.06"/></g></g></g><path class="cls-23" d="M167.94,58A25.54,25.54,0,1,1,142.4,83.5,25.55,25.55,0,0,1,167.94,58Z"/></g><path class="cls-30" d="M182.3,89.89,179,94.58l-2.31-1.89a.58.58,0,1,0-.74.9l2.79,2.29a.59.59,0,0,0,.37.14h.08a.56.56,0,0,0,.4-.24l3.63-5.22a.58.58,0,0,0-.14-.81A.59.59,0,0,0,182.3,89.89Z"/><path class="cls-30" d="M179.15,96.39a.89.89,0,0,1-.6-.22l-2.8-2.29a.91.91,0,0,1-.34-.65.94.94,0,0,1,.21-.7.91.91,0,0,1,.65-.34.94.94,0,0,1,.7.21L179,94l3-4.36a.9.9,0,0,1,.61-.39,1,1,0,0,1,.72.15,1,1,0,0,1,.24,1.34L179.94,96a.93.93,0,0,1-.65.4Zm-2.79-3.46h0a.18.18,0,0,0-.14.08.21.21,0,0,0,0,.15.18.18,0,0,0,.08.14L179,95.59a.18.18,0,0,0,.13,0,.24.24,0,0,0,.18-.09L183,90.34a.2.2,0,0,0,0-.29.21.21,0,0,0-.15,0,.19.19,0,0,0-.14.09h0l-3.5,5L176.49,93A.21.21,0,0,0,176.36,92.93Z"/><path class="cls-30" d="M182.78,86.41V69.2a.58.58,0,0,0-.58-.58h-2.92V66.87a.58.58,0,0,0-.58-.58h-4.09a.58.58,0,0,0-.58.58v1.75H161.18V66.87a.58.58,0,0,0-.58-.58h-4.09a.58.58,0,0,0-.58.58v1.75H153a.59.59,0,0,0-.59.58V99a.59.59,0,0,0,.59.58h22.24a7.51,7.51,0,0,0,4,1.17,7.59,7.59,0,0,0,3.5-14.32Zm-7.59-19h2.92V71h-2.92V67.45Zm-18.09,0H160V71H157.1V67.45Zm-3.51,2.34h2.34v1.75a.58.58,0,0,0,.58.58h4.09a.58.58,0,0,0,.58-.58V69.79H174v1.75a.58.58,0,0,0,.58.58h4.09a.58.58,0,0,0,.58-.58V69.79h2.33v4.67h-28Zm0,28.6V75.63h28V85.92l-.34-.1-.33-.08-.3-.06-.43-.07-.24,0q-.34,0-.69,0a5.49,5.49,0,0,0-.58,0v-7H156.51V95.47h15.55l.06.16c0,.14.09.28.15.42a2.4,2.4,0,0,0,.11.23,4.39,4.39,0,0,0,.21.44,1.74,1.74,0,0,0,.11.18q.12.22.27.45l.11.15c.1.15.21.29.32.43l.13.15.27.31ZM176,86.33a1.63,1.63,0,0,0-.19.09,3.3,3.3,0,0,0-.32.18l-.28.17-.27.18-.29.22-.24.19-.29.27a1.8,1.8,0,0,0-.2.19l-.31.33-.13.15V85h4.09v.79h0A7.45,7.45,0,0,0,176,86.33ZM172,90.92c0,.07,0,.14-.05.2s-.09.34-.13.52,0,.27-.06.41,0,.22-.05.33a6.34,6.34,0,0,0,0,.76c0,.21,0,.42,0,.64a.37.37,0,0,0,0,.11c0,.1,0,.19,0,.28h0s0,.08,0,.13h-3.6V90.22h4.08s0,0,0,0C172.17,90.48,172.09,90.7,172,90.92Zm-14.34-.7h4.09v4.09h-4.09Zm0-5.25h4.09v4.08h-4.09Zm19.85-1.17h-4.09V79.71h4.09Zm-5.26,0h-4.08V79.71h4.08Zm0,5.25h-4.08V85h4.08ZM162.93,85H167v4.08h-4.09ZM167,83.8h-4.09V79.71H167Zm-5.25,0h-4.09V79.71h4.09Zm1.16,6.42H167v4.09h-4.09Zm16.35,9.34a6.42,6.42,0,0,1-3.57-1.08c-.19-.14-.38-.28-.56-.43l-.19-.17-.33-.32-.2-.22-.27-.34c-.06-.08-.12-.15-.17-.23s-.25-.38-.36-.57a1,1,0,0,0-.07-.15c-.08-.16-.16-.33-.23-.51l-.09-.23-.15-.46s0-.08,0-.11a5.23,5.23,0,0,1-.15-.77s0,0,0,0a7.11,7.11,0,0,1,0-.78q0-.33,0-.66s0,0,0,0q0-.3.09-.6s0,0,0,0a5.47,5.47,0,0,1,.15-.58.14.14,0,0,0,0-.06,4.33,4.33,0,0,1,.21-.54c.07-.17.15-.34.23-.5l.06-.09a.57.57,0,0,1,.08-.13c.1-.17.21-.33.32-.49l.09-.12a3.19,3.19,0,0,1,.33-.4l.12-.14.36-.35.13-.12.45-.35a.18.18,0,0,0,.07,0,6.43,6.43,0,0,1,2.58-1h0a7.45,7.45,0,0,1,1.06-.09c.23,0,.45,0,.68,0l.1,0a5.62,5.62,0,0,1,.57.09l.07,0c.2.05.4.1.6.17h0a6.07,6.07,0,0,1,.59.24,6.42,6.42,0,0,1-2.65,12.26Z"/><path class="cls-30" d="M179.28,101.1a7.93,7.93,0,0,1-4.13-1.16H153a1,1,0,0,1-1-1V69.2a1,1,0,0,1,1-1h2.54V66.87a1,1,0,0,1,1-1h4.09a1,1,0,0,1,1,1v1.38h12.09V66.87a1,1,0,0,1,1-1h4.09a1,1,0,0,1,1,1v1.38h2.55a1,1,0,0,1,1,1v17a8,8,0,0,1-3.88,14.91ZM153,69a.2.2,0,0,0-.21.2V99a.21.21,0,0,0,.21.21h22.35l.09,0a7.2,7.2,0,1,0,7.16-12.49l-.2-.11V69.2a.21.21,0,0,0-.21-.2h-3.3V66.87a.2.2,0,0,0-.2-.21h-4.09a.21.21,0,0,0-.21.21V69H160.81V66.87a.21.21,0,0,0-.21-.21h-4.09a.21.21,0,0,0-.21.21V69Zm26.27,30.94a6.75,6.75,0,0,1-3.77-1.15,5.59,5.59,0,0,1-.6-.46.93.93,0,0,1-.15-.13,5.06,5.06,0,0,1-.4-.39l-.21-.23a3.51,3.51,0,0,1-.29-.36l-.18-.23c-.13-.2-.26-.4-.38-.62l-.05-.1c-.11-.22-.19-.4-.27-.59l-.07-.18c-.08-.22-.13-.39-.18-.55l0-.12a8.23,8.23,0,0,1-.22-1.69,6.73,6.73,0,0,1,.15-1.38c.06-.27.11-.47.17-.67s.16-.46.24-.64.16-.35.25-.52l.12-.19a4.7,4.7,0,0,1,.37-.57l.09-.13a4.87,4.87,0,0,1,.35-.42l.13-.15c.12-.12.25-.25.38-.36l.14-.13c.15-.13.31-.25.47-.37l.08-.06a6.74,6.74,0,0,1,2.73-1.11,6.87,6.87,0,0,1,1.85-.06l.11,0a4.17,4.17,0,0,1,.6.1,5.91,5.91,0,0,1,.71.19,7.18,7.18,0,0,1,.67.27,6.79,6.79,0,0,1-2.81,13ZM174,96a6.1,6.1,0,0,0,.34.54l.16.21a3.92,3.92,0,0,0,.25.32l.19.21.32.3.17.16.53.41a6,6,0,1,0,5.86-10.53c-.19-.08-.38-.16-.57-.22a4.58,4.58,0,0,0-.59-.17,4.72,4.72,0,0,0-.61-.11l0-.39,0,.38a5.73,5.73,0,0,0-1.64.05,5.9,5.9,0,0,0-2.43,1,4,4,0,0,0-.49.38l-.1.08c-.14.14-.26.24-.36.36l-.09.09-.34.41-.09.12c-.1.15-.21.3-.3.46l-.4-.06.33.18-.06.1c-.08.14-.15.3-.22.45a5.27,5.27,0,0,0-.19.51,5.93,5.93,0,0,0-.17.61,5.49,5.49,0,0,0-.1.61,5.56,5.56,0,0,0,0,.67,6.11,6.11,0,0,0,.05.73,7,7,0,0,0,.15.77l-.34.21.37-.11a3.22,3.22,0,0,0,.14.44l.08.22a4.16,4.16,0,0,0,.22.48l-.27.31Zm.72,2.75H153.22V75.25H182V86.43l-.49-.15-.24-.07-.4-.11-.28,0-.41-.06-.23,0a7,7,0,0,0-1.21,0l-.41,0V78.92H156.89V95.1h15.44l.09.26-.3.27.35-.13c.06.17.1.29.15.4l.06.14c.1.22.17.36.24.5l.06.1c.12.22.21.36.3.5l.06.08c.14.2.24.34.35.47l.21.24a1.71,1.71,0,0,0,.18.2ZM154,98h19l-.22-.3-.11-.17a4.43,4.43,0,0,1-.29-.46l-.11-.2c-.08-.15-.15-.3-.22-.46a2,2,0,0,1-.11-.24,3.42,3.42,0,0,1-.13-.34H156.14V78.17h22.93v7a7.38,7.38,0,0,1,.94,0l.22,0,.48.07.31.06.22.06V76H154Zm18.09-2.45h0l0,0Zm-.27-.89h-4V89.85h4.84l0,.52c-.1.24-.17.45-.24.66l0,.2c-.05.19-.09.33-.12.48a2.51,2.51,0,0,0,0,.27l0,.26,0,.18c0,.23,0,.48,0,.72s0,.4,0,.6l-.36.15.37,0s0,.1,0,.14l.08.55Zm-3.23-.75h2.8v-.12c0-.22,0-.45,0-.67a7,7,0,0,1,.05-.8,1.81,1.81,0,0,1,0-.23l0-.23c0-.11,0-.21.05-.32s.08-.33.13-.49l.39,0-.36-.08,0-.14a1.72,1.72,0,0,0,.07-.21h-3.17Zm-1.17.75h-4.83V89.85h4.83Zm-4.08-.75h3.33V90.6h-3.33Zm-1.17.75H157.3V89.85h4.84Zm-4.09-.75h3.34V90.6h-3.34Zm14.6-4.5h-4.84V84.59h4.84Zm-4.09-.75h3.34V85.34h-3.34Zm-1.17.75h-4.83V84.59h4.83Zm-4.08-.75h3.33V85.34h-3.33Zm-1.17.75H157.3V84.59h4.84Zm-4.09-.75h3.34V85.34h-3.34Zm15.07.59-.05-1V84.59h4.83v1.46l-.28.08a7.19,7.19,0,0,0-1.5.53l-.18.09-.28.16-.29.17c-.08.06-.17.11-.25.18a2.92,2.92,0,0,0-.28.21l-.22.17a3.32,3.32,0,0,0-.27.25l-.21.19c-.1.1-.19.21-.29.32Zm.7-1.82.27.17-.26-.28.3-.27.24-.19.32-.24.28-.19.29-.17.34-.2.14-.07.22.32-.17-.34a8.65,8.65,0,0,1,1.36-.52v-.13h-3.33Zm4.08-3.28h-4.83V79.34h4.83Zm-4.08-.75h3.33V80.09h-3.33Zm-1.17.75h-4.84V79.34h4.84Zm-4.09-.75h3.34V80.09h-3.34Zm-1.17.75h-4.83V79.34h4.83Zm-4.08-.75h3.33V80.09h-3.33Zm-1.17.75H157.3V79.34h4.84Zm-4.09-.75h3.34V80.09h-3.34ZM182,74.83H153.22V69.41h3.08v2.13a.22.22,0,0,0,.21.21h4.09a.22.22,0,0,0,.21-.21V69.41H174.4v2.13a.21.21,0,0,0,.21.21h4.09a.21.21,0,0,0,.2-.21V69.41H182Zm-28-.75h27.27V70.16h-1.59v1.38a1,1,0,0,1-1,1h-4.09a1,1,0,0,1-1-1V70.16H161.56v1.38a1,1,0,0,1-1,1h-4.09a1,1,0,0,1-1-1V70.16H154Zm24.52-2.75h-3.67V67.08h3.67Zm-2.92-.75h2.17V67.83h-2.17Zm-15.18.75h-3.67V67.08h3.67Zm-2.92-.75h2.17V67.83h-2.17Z"/><text class="cls-4" transform="translate(427.57 125.9)">2021</text><text class="cls-26" transform="translate(451.78 20.46)"><tspan class="cls-32">F</tspan><tspan x="4.61" y="0">inal</tspan><tspan class="cls-9" x="0" y="11">R</tspan><tspan x="5.42" y="11">epo</tspan><tspan class="cls-33" x="21.61" y="11">r</tspan><tspan class="cls-34" x="25.12" y="11">t</tspan></text><path class="cls-27" d="M408.48,84.51H377.85v-2H406.5a35.4,35.4,0,0,1,34.34-34.34V19.47h2V50.16h-1a33.4,33.4,0,0,0-33.36,33.35Z"/><circle class="cls-13" cx="441.84" cy="17" r="3.47"/><path class="cls-27" d="M441.84,21.47A4.47,4.47,0,1,1,446.3,17,4.47,4.47,0,0,1,441.84,21.47Zm0-6.94A2.47,2.47,0,1,0,444.3,17,2.48,2.48,0,0,0,441.84,14.53Z"/><g class="cls-14"><g class="cls-14"><g class="cls-35"><g class="cls-14"><path class="cls-16" d="M442.86,58V55a28.36,28.36,0,0,1,14.26,3.82l-1.5,2.6A25.41,25.41,0,0,0,442.86,58"/><path class="cls-17" d="M455.62,61.38l1.5-2.6A28.63,28.63,0,0,1,469.59,73.5l-2.81,1a25.69,25.69,0,0,0-11.16-13.17"/><path class="cls-16" d="M466.78,74.55l2.81-1A28.8,28.8,0,0,1,470.65,90l-2.92-.68a25.84,25.84,0,0,0-1-14.78"/><path class="cls-18" d="M467.73,89.33l2.92.68A28.32,28.32,0,0,1,466,100.17l-2.43-1.75a25.6,25.6,0,0,0,4.14-9.09"/><path class="cls-19" d="M463.59,98.42l2.43,1.75a28.57,28.57,0,0,1-7.63,7.28l-1.64-2.52a25.54,25.54,0,0,0,6.84-6.51"/><path class="cls-20" d="M456.75,104.93l1.64,2.52a28.35,28.35,0,0,1-10.62,4.17l-.52-3a25.35,25.35,0,0,0,9.5-3.74"/><path class="cls-21" d="M447.25,108.67l.52,3a28.75,28.75,0,0,1-16.6-2.07l1.23-2.74A25.35,25.35,0,0,0,442.86,109a26.54,26.54,0,0,0,4.39-.37"/><path class="cls-22" d="M432.4,106.81l-1.23,2.74a28.61,28.61,0,0,1-15.93-18.82l2.9-.76a25.6,25.6,0,0,0,14.26,16.84"/><path class="cls-21" d="M418.14,90l-2.9.76a28.78,28.78,0,0,1,.68-16.68l2.83,1A25.82,25.82,0,0,0,418.14,90"/><path class="cls-20" d="M418.75,75l-2.83-1a28.62,28.62,0,0,1,5.9-9.84l2.22,2a25.53,25.53,0,0,0-5.29,8.8"/><path class="cls-19" d="M424,66.24l-2.22-2a29,29,0,0,1,8.43-6.32l1.33,2.7A25.43,25.43,0,0,0,424,66.24"/><path class="cls-18" d="M431.58,60.59l-1.33-2.7A28.35,28.35,0,0,1,441,55l.19,3a25.07,25.07,0,0,0-9.65,2.57"/><path class="cls-16" d="M441.23,58,441,55c.6,0,1.21-.06,1.82-.06v3c-.55,0-1.09,0-1.63.06"/></g></g></g><path class="cls-23" d="M442.86,58A25.54,25.54,0,1,1,417.32,83.5,25.54,25.54,0,0,1,442.86,58Z"/></g><g class="cls-36"><path class="cls-27" d="M432.59,97.93V69.49H443v8.78h10.45V97.93Zm13-27.4,5.23,5.23h-5.23V70.53Zm0-3.55H430.08v33.46H456V76.18L445.55,67Z"/><polygon class="cls-27" points="435.1 82.45 450.99 82.45 450.99 84.13 435.1 84.13 435.1 82.45 435.1 82.45"/><polygon class="cls-27" points="435.1 79.11 440.54 79.11 440.54 80.78 435.1 80.78 435.1 79.11 435.1 79.11"/><polygon class="cls-27" points="435.1 85.8 450.99 85.8 450.99 87.47 435.1 87.47 435.1 85.8 435.1 85.8"/><polygon class="cls-27" points="435.1 89.14 450.99 89.14 450.99 90.82 435.1 90.82 435.1 89.14 435.1 89.14"/><polygon class="cls-27" points="435.1 92.49 450.99 92.49 450.99 94.16 435.1 94.16 435.1 92.49 435.1 92.49"/></g><text class="cls-4" transform="translate(244.7 125.9)">2020</text><text class="cls-29" transform="translate(269.52 20.46)">East -<tspan class="cls-37" x="22.2" y="0"> </tspan><tspan class="cls-38" x="23.96" y="0">W</tspan><tspan class="cls-7" x="32.09" y="0">est </tspan><tspan class="cls-39" x="0" y="11">C</tspan><tspan class="cls-7" x="5.69" y="11">onne</tspan><tspan class="cls-40" x="27.29" y="11">c</tspan><tspan class="cls-8" x="31.9" y="11">t</tspan><tspan class="cls-7" x="35.15" y="11">or </tspan><tspan class="cls-41" x="46.03" y="11">A</tspan><tspan x="52.12" y="11">l</tspan><tspan class="cls-8" x="54.48" y="11">t</tspan><tspan x="57.73" y="11">e</tspan><tspan class="cls-9" x="62.74" y="11">r</tspan><tspan x="66.05" y="11">n</tspan><tspan class="cls-10" x="71.6" y="11">a</tspan><tspan x="76.38" y="11">ti</tspan><tspan class="cls-11" x="82.03" y="11">v</tspan><tspan class="cls-7" x="86.74" y="11">es</tspan></text><path class="cls-30" d="M226.12,84.51H195.48v-2h28.65a35.4,35.4,0,0,1,34.34-34.34V19.47h2V50.16h-1a33.39,33.39,0,0,0-33.35,33.35Z"/><circle class="cls-13" cx="259.47" cy="17" r="3.47"/><path class="cls-30" d="M259.47,21.47A4.47,4.47,0,1,1,263.93,17,4.47,4.47,0,0,1,259.47,21.47Zm0-6.94A2.47,2.47,0,1,0,261.93,17,2.48,2.48,0,0,0,259.47,14.53Z"/><g class="cls-14"><g class="cls-14"><g class="cls-42"><g class="cls-14"><path class="cls-16" d="M260,58V55a28.36,28.36,0,0,1,14.26,3.82l-1.5,2.6A25.41,25.41,0,0,0,260,58"/><path class="cls-17" d="M272.74,61.38l1.5-2.6A28.63,28.63,0,0,1,286.71,73.5l-2.81,1a25.69,25.69,0,0,0-11.16-13.17"/><path class="cls-16" d="M283.9,74.55l2.81-1A28.8,28.8,0,0,1,287.77,90l-2.92-.68a25.84,25.84,0,0,0-1-14.78"/><path class="cls-18" d="M284.85,89.33l2.92.68a28.32,28.32,0,0,1-4.63,10.16l-2.43-1.75a25.6,25.6,0,0,0,4.14-9.09"/><path class="cls-19" d="M280.71,98.42l2.43,1.75a28.57,28.57,0,0,1-7.63,7.28l-1.64-2.52a25.54,25.54,0,0,0,6.84-6.51"/><path class="cls-20" d="M273.87,104.93l1.64,2.52a28.35,28.35,0,0,1-10.62,4.17l-.52-3a25.35,25.35,0,0,0,9.5-3.74"/><path class="cls-21" d="M264.37,108.67l.52,3a28.75,28.75,0,0,1-16.6-2.07l1.23-2.74A25.35,25.35,0,0,0,260,109a26.54,26.54,0,0,0,4.39-.37"/><path class="cls-22" d="M249.52,106.81l-1.23,2.74a28.61,28.61,0,0,1-15.93-18.82l2.9-.76a25.6,25.6,0,0,0,14.26,16.84"/><path class="cls-21" d="M235.26,90l-2.9.76A28.78,28.78,0,0,1,233,74.05l2.83,1A25.82,25.82,0,0,0,235.26,90"/><path class="cls-20" d="M235.87,75l-2.83-1a28.62,28.62,0,0,1,5.9-9.84l2.22,2a25.53,25.53,0,0,0-5.29,8.8"/><path class="cls-19" d="M241.16,66.24l-2.22-2a29,29,0,0,1,8.43-6.32l1.33,2.7a25.43,25.43,0,0,0-7.54,5.65"/><path class="cls-18" d="M248.7,60.59l-1.33-2.7A28.35,28.35,0,0,1,258.16,55l.19,3a25.07,25.07,0,0,0-9.65,2.57"/><path class="cls-16" d="M258.35,58l-.19-3c.6,0,1.21-.06,1.82-.06v3c-.55,0-1.09,0-1.63.06"/></g></g></g><path class="cls-23" d="M260,58A25.54,25.54,0,1,1,234.44,83.5,25.54,25.54,0,0,1,260,58Z"/></g><path class="cls-30" d="M272.77,96.7H249.21V70.31h23.56V96.7ZM246.39,67.48v2.83h-.62a1.36,1.36,0,0,0-1.27,1.41,1.34,1.34,0,0,0,1.27,1.42h.62V75h-.62a1.42,1.42,0,0,0,0,2.83h.62v1.89h-.62a1.41,1.41,0,1,0,0,2.82h.62v1.89h-.62a1.42,1.42,0,0,0,0,2.83h.62v1.88h-.62a1.42,1.42,0,0,0,0,2.83h.62v1.89h-.62a1.41,1.41,0,1,0,0,2.82h.62v2.83h29.2v-32Z"/><path class="cls-30" d="M255.81,88.22a1.89,1.89,0,1,1-1.89,1.89,1.89,1.89,0,0,1,1.89-1.89Zm0,5.66a3.77,3.77,0,0,0,3.72-3.3,3.72,3.72,0,0,0-2.78-4.1V85.39a.94.94,0,0,1,.94-.94h6.6a2.83,2.83,0,0,0,2.82-2.83V76.34l1.23,1.23a.91.91,0,0,0,1.32,0,.92.92,0,0,0,0-1.32l-2.83-2.83a.92.92,0,0,0-.66-.28.93.93,0,0,0-.66.28l-2.82,2.83a.91.91,0,0,0,0,1.32.9.9,0,0,0,1.31,0l1.23-1.23v5.28a.94.94,0,0,1-.94.94h-6.6a2.84,2.84,0,0,0-2.82,2.83v1.09a3.76,3.76,0,0,0,.94,7.4Z"/><path class="cls-30" d="M269.66,86.62a1,1,0,0,0-.66-.29.93.93,0,0,0-.66.29l-2.17,2.17L264,86.62a.9.9,0,0,0-1.31,0,.91.91,0,0,0,0,1.32l2.16,2.17-2.16,2.16a.91.91,0,0,0,0,1.32.9.9,0,0,0,1.31,0l2.17-2.17,2.17,2.17a.91.91,0,0,0,1.32,0,.92.92,0,0,0,0-1.32l-2.17-2.16,2.17-2.17a.92.92,0,0,0,0-1.32Z"/><path class="cls-30" d="M252.32,80.4a1,1,0,0,0,.66.28,1,1,0,0,0,.66-.28l2.17-2.17L258,80.4a.93.93,0,0,0,1.31-1.32l-2.16-2.17,2.16-2.17a.91.91,0,0,0,0-1.32.9.9,0,0,0-1.31,0l-2.17,2.17-2.17-2.17a.91.91,0,0,0-1.32,0,.92.92,0,0,0,0,1.32l2.17,2.17-2.17,2.17a.92.92,0,0,0,0,1.32Z"/></g></svg>